# xmcd
#
# Track frame offsets:
#	150
#	10190
#	25528
#	40053
#	54902
#	64417
#	89122
#	103774
#	121681
#	135373
#	147547
#	161302
#	175514
#	188385
#	211695
#	225988
#	240518
#	253441
#	271595
#	283797
#
# Disc length: 4003
#
# Revision: 2
# Processed by: cddbd v1.5.1PL0 Copyright (c) Steve Scherf et al.
# Submitted via: dBpowerAMP V4.0
# Normalized: r0:TSWAP
#
DISCID=010fa114
DTITLE=Various Artist - Blues Masters - Disc 3
DYEAR=2001
DGENRE=Blues
TTITLE0=John Lee Hooker - Dimples
TTITLE1=Bessie Smith - Careless Love Blues
TTITLE2=Ma Rainey - Sleep Talking Blues
TTITLE3=T-Bone Walker - I Got A Break Baby
TTITLE4=Jimmy Page and The All Stars - L.A. Breakdown
TTITLE5=Albert King - Born Under A Bad Sign
TTITLE6=Rod Stewart - So Much To Say
TTITLE7=John Mayall and The Bluesbreakers - Telephone Blues
TTITLE8=Robert Johnson - Terraplane Blues
TTITLE9=Howlin' Wolf - Dorothy Mae
TTITLE10=Sonny Boy Williamson - New Early In The Morning
TTITLE11=Bessie Smith - Young Woman's Blues
TTITLE12=Jimmy Reed - The Sun Is Shining
TTITLE13=B B King - Sweet Little Angel (Live)
TTITLE14=Bukka White - Panama Limited Blues
TTITLE15=Big Joe Williams - Highway
TTITLE16=Mississippi John Hurt - Got The Blues, Can't Be Satisfied
TTITLE17=Tommy Tucker - High Heel Sneekers
TTITLE18=Big Bill Broonzy - Midnight Steppers
TTITLE19=Savoy Brown Blues Band - Can't Quit You Baby
EXTD=
EXTT0=
EXTT1=
EXTT2=
EXTT3=
EXTT4=
EXTT5=
EXTT6=
EXTT7=
EXTT8=
EXTT9=
EXTT10=
EXTT11=
EXTT12=
EXTT13=
EXTT14=
EXTT15=
EXTT16=
EXTT17=
EXTT18=
EXTT19=
PLAYORDER=
